<?xml version="1.0" encoding="utf-8"?>
<!-- Generator: Adobe Illustrator 19.1.0, SVG Export Plug-In . SVG Version: 6.00 Build 0)  -->
<svg version="1.1" id="Layer_1" xmlns="http://www.w3.org/2000/svg" xmlns:xlink="http://www.w3.org/1999/xlink" x="0px" y="0px"
	 width="40px" height="40px" viewBox="-509.2 595 40 40" style="enable-background:new -509.2 595 40 40;" xml:space="preserve">
<style type="text/css">
	.st0{fill:#4A4A4A;}
	.st1{fill:#FFFFFF;}
</style>
<circle class="st0" cx="-489.2" cy="615" r="20"/>
<g>
	<path class="st1" d="M-490.6,618.2c-0.3,1.7-0.7,3.1-1.2,4.2c-0.4,1.1-1.1,1.9-1.9,2.6c-0.1-1-0.1-1.8-0.1-2.4
		c0-0.6,0.1-1.3,0.2-2.2c0.2-0.9,0.3-1.5,0.4-2.1c0.1-0.5,0.3-1.2,0.5-2c0.2-0.8,0.4-1.4,0.5-2c-0.3-0.7-0.4-1.5-0.4-2.3
		s0.4-1.6,1-2.1c0.6-0.6,1.2-0.7,2-0.4c0.5,0.2,0.8,0.6,0.9,1.2s0,1.2-0.3,1.9c-0.2,0.7-0.4,1.4-0.6,2.1c-0.2,0.7-0.2,1.3-0.1,1.8
		s0.6,0.8,1.3,1c0.9,0.2,1.7-0.1,2.4-0.8c0.7-0.7,1.2-1.6,1.5-2.6c0.3-1.1,0.4-2.1,0.2-3.3c-0.1-1.1-0.5-2-1.1-2.6
		c-0.8-0.9-1.8-1.3-3-1.4c-1.2-0.1-2.3,0.1-3.3,0.7s-1.8,1.3-2.4,2.3c-0.6,1-0.8,2.2-0.6,3.4c0.1,0.3,0.2,0.6,0.4,1s0.4,0.7,0.4,0.9
		s-0.1,0.7-0.3,1.3c-1.9-0.5-2.9-2-2.8-4.6c0.1-1.8,0.8-3.4,2.1-4.7c1.3-1.3,2.9-2,4.7-2.2c2.2-0.2,4.1,0.1,5.8,1.1
		c1.7,1,2.6,2.5,2.9,4.4c0.3,2.3-0.1,4.5-1.3,6.3c-1.2,1.9-2.9,2.7-5,2.6c-0.3,0-0.6-0.1-0.8-0.2s-0.5-0.2-0.6-0.3
		c-0.1-0.1-0.3-0.2-0.6-0.4C-490.3,618.4-490.5,618.3-490.6,618.2L-490.6,618.2"/>
</g>
</svg>
