<?xml version="1.0" encoding="utf-8"?>
<!-- Generator: Adobe Illustrator 19.1.0, SVG Export Plug-In . SVG Version: 6.00 Build 0)  -->
<svg version="1.1" id="Layer_1" xmlns="http://www.w3.org/2000/svg" xmlns:xlink="http://www.w3.org/1999/xlink" x="0px" y="0px"
	 width="40px" height="40px" viewBox="-662.7 595 40 40" style="enable-background:new -662.7 595 40 40;" xml:space="preserve">
<style type="text/css">
	.st0{fill:#4A4A4A;}
	.st1{fill:#FFFFFF;}
</style>
<circle class="st0" cx="-642.7" cy="615" r="20"/>
<path class="st1" d="M-632,608.2c-0.7,0.4-1.6,0.7-2.4,0.7c0.9-0.4,1.6-1.3,1.8-2.2c-0.9,0.4-1.8,0.9-2.7,1.1
	c-0.7-0.9-1.8-1.3-3.1-1.3c-2.2,0-4.2,1.8-4.2,4.2c0,0.2,0,0.7,0,0.9c-3.6-0.2-6.7-1.8-8.7-4.5c-0.4,0.7-0.7,1.3-0.7,2.2
	c0,1.6,0.7,2.7,1.8,3.6c-0.7,0-1.3-0.2-2-0.4l0,0c0,2,1.6,3.8,3.3,4.2c-0.4,0-0.7,0.2-1.1,0.2c-0.2,0-0.4,0-0.9,0
	c0.4,1.8,2,2.9,4,2.9c-1.3,1.1-3.3,1.8-5.3,1.8c-0.4,0-0.7,0-1.1,0c1.8,1.1,4,2,6.5,2c7.8,0,12-6.5,12-12c0-0.2,0-0.4,0-0.4
	C-633.3,609.8-632.7,609-632,608.2z"/>
</svg>
