<?xml version="1.0" encoding="utf-8"?>
<!-- Generator: Adobe Illustrator 19.1.0, SVG Export Plug-In . SVG Version: 6.00 Build 0)  -->
<svg version="1.1" id="Layer_1" xmlns="http://www.w3.org/2000/svg" xmlns:xlink="http://www.w3.org/1999/xlink" x="0px" y="0px"
	 width="40px" height="40px" viewBox="-610.3 595 40 40" style="enable-background:new -610.3 595 40 40;" xml:space="preserve">
<style type="text/css">
	.st0{fill:#4A4A4A;}
	.st1{fill:#FFFFFF;}
</style>
<circle class="st0" cx="-590.3" cy="615" r="20"/>
<path class="st1" d="M-589,612.3V610c0,0,0,0,0-0.2c0-0.9,0.2-1.4,1.4-1.4c1.2,0,2.1,0,2.1,0v-3.2c0,0-0.9-0.2-2.3-0.2
	c-3.4,0-4.8,2.1-4.8,4.4c0,1.4,0,2.7,0,2.7h-2.5v3.4h2.5v9.4h3.4v-9.4h3.4l0.2-3.4h-3.4V612.3L-589,612.3z"/>
</svg>
