<?xml version="1.0" encoding="utf-8"?>
<!-- Generator: Adobe Illustrator 19.1.0, SVG Export Plug-In . SVG Version: 6.00 Build 0)  -->
<svg version="1.1" id="Layer_1" xmlns="http://www.w3.org/2000/svg" xmlns:xlink="http://www.w3.org/1999/xlink" x="0px" y="0px"
	 width="40px" height="40px" viewBox="-767 595 40 40" style="enable-background:new -767 595 40 40;" xml:space="preserve">
<style type="text/css">
	.st0{fill:#4A4A4A;}
	.st1{fill:#FFFFFF;}
</style>
<circle class="st0" cx="-747" cy="615" r="20"/>
<path class="st1" d="M-746.9,625.1c-0.1,0-0.1,0-0.2,0l0,0h-0.1c-1.3,0-2.1-0.6-2.9-1.1c-0.5-0.4-1.1-0.7-1.7-0.8
	c-0.3,0-0.6-0.1-0.9-0.1c-0.5,0-0.9,0.1-1.2,0.1c-0.2,0-0.3,0.1-0.5,0.1c-0.1,0-0.3,0-0.3-0.2c-0.1-0.2-0.1-0.3-0.1-0.5
	c-0.1-0.4-0.2-0.7-0.3-0.7c-2-0.3-2.6-0.7-2.7-1v-0.1c0-0.1,0.1-0.2,0.2-0.2c3.1-0.5,4.5-3.7,4.5-3.8l0,0c0.2-0.4,0.2-0.7,0.1-1
	c-0.2-0.5-0.9-0.7-1.4-0.9c-0.1,0-0.2-0.1-0.3-0.1c-0.9-0.4-1-0.7-1-0.9c0.1-0.3,0.5-0.5,0.8-0.5c0.1,0,0.2,0,0.3,0.1
	c0.4,0.2,0.8,0.3,1.1,0.3c0.4,0,0.6-0.2,0.7-0.2c0-0.2,0-0.4,0-0.7c-0.1-1.5-0.2-3.3,0.3-4.3c1.4-3.1,4.3-3.4,5.2-3.4h0.4h0.1
	c0.9,0,3.8,0.2,5.2,3.4c0.5,1,0.3,2.9,0.3,4.3v0.1c0,0.2,0,0.4,0,0.6c0,0,0.2,0.2,0.6,0.2l0,0c0.3,0,0.7-0.1,1-0.3
	c0.1-0.1,0.2-0.1,0.3-0.1s0.3,0,0.4,0.1l0,0c0.3,0.1,0.5,0.3,0.5,0.6c0,0.2-0.2,0.5-1,0.9c-0.1,0-0.2,0.1-0.3,0.1
	c-0.5,0.1-1.2,0.4-1.4,0.9c-0.1,0.3-0.1,0.6,0.1,1l0,0c0.1,0.1,1.4,3.3,4.5,3.8c0.1,0,0.2,0.1,0.2,0.2v0.1c-0.1,0.3-0.7,0.7-2.7,1
	c-0.2,0-0.2,0.2-0.3,0.7c0,0.2-0.1,0.3-0.1,0.5c0,0.1-0.1,0.2-0.3,0.2l0,0c-0.1,0-0.3,0-0.5-0.1c-0.3-0.1-0.7-0.1-1.2-0.1
	c-0.3,0-0.6,0-0.9,0.1c-0.6,0.1-1.1,0.5-1.7,0.8C-744.8,624.5-745.6,625.1-746.9,625.1z"/>
</svg>
