<?xml version="1.0" encoding="utf-8"?>
<!-- Generator: Adobe Illustrator 19.1.0, SVG Export Plug-In . SVG Version: 6.00 Build 0)  -->
<svg version="1.1" id="Layer_1" xmlns="http://www.w3.org/2000/svg" xmlns:xlink="http://www.w3.org/1999/xlink" x="0px" y="0px"
	 width="40px" height="40px" viewBox="-714.7 595 40 40" style="enable-background:new -714.7 595 40 40;" xml:space="preserve">
<style type="text/css">
	.st0{fill:#4A4A4A;}
	.st1{fill:#FFFFFF;}
</style>
<circle class="st0" cx="-694.7" cy="615" r="20"/>
<path class="st1" d="M-701.7,605.6h14c1.3,0,2.4,1.1,2.4,2.4v14c0,1.3-1.1,2.4-2.4,2.4h-14c-1.3,0-2.4-1.1-2.4-2.4v-14
	C-704.1,606.7-703,605.6-701.7,605.6L-701.7,605.6z M-690.4,607.7c-0.5,0-0.8,0.4-0.8,0.8v2c0,0.5,0.4,0.8,0.8,0.8h2.1
	c0.5,0,0.8-0.4,0.8-0.8v-2c0-0.5-0.4-0.8-0.8-0.8L-690.4,607.7L-690.4,607.7z M-687.4,613.6h-1.7c0.2,0.5,0.2,1.1,0.2,1.6
	c0,3.1-2.6,5.7-5.9,5.7c-3.2,0-5.9-2.5-5.9-5.7c0-0.6,0.1-1.1,0.2-1.6h-1.7v8c0,0.4,0.3,0.8,0.8,0.8h13.1c0.4,0,0.7-0.3,0.7-0.8
	L-687.4,613.6L-687.4,613.6z M-694.7,611.3c-2.1,0-3.8,1.6-3.8,3.7c0,2,1.7,3.7,3.8,3.7c2.1,0,3.8-1.6,3.8-3.7
	C-690.9,613-692.6,611.3-694.7,611.3z"/>
</svg>
