<?xml version="1.0" encoding="UTF-8" standalone="no"?>
<svg width="218px" height="77px" viewBox="0 0 218 77" version="1.1" xmlns="http://www.w3.org/2000/svg" xmlns:xlink="http://www.w3.org/1999/xlink" xmlns:sketch="http://www.bohemiancoding.com/sketch/ns">
    <!-- Generator: Sketch 3.5.2 (25235) - http://www.bohemiancoding.com/sketch -->
    <title>Page 1</title>
    <desc>Created with Sketch.</desc>
    <defs></defs>
    <g id="Page-1" stroke="none" stroke-width="1" fill="none" fill-rule="evenodd" sketch:type="MSPage">
        <g id="jan-6" sketch:type="MSArtboardGroup" transform="translate(-492.000000, -47.000000)">
            <g id="Page-1" sketch:type="MSLayerGroup" transform="translate(492.000000, 47.000000)">
                <path d="M0.75,41.5061 C9.567,38.8161 16.445,32.9821 21.785,24.6541 C16.318,52.2441 15.965,73.7851 8.01,75.5701 C2.286,76.8551 -0.23,70.6671 9.247,57.2551 C18.579,44.0491 17.543,40.8571 36.528,26.8681" id="Stroke-1" stroke="#000000" stroke-width="1.5" stroke-linecap="round" stroke-linejoin="round" sketch:type="MSShapeGroup"></path>
                <path d="M42.6281,24.8005 C34.5111,24.9985 31.1831,33.1735 31.3291,38.0175 C31.4751,42.8625 34.5721,46.3795 39.1751,46.2665 C48.7361,46.0325 52.2001,38.8655 52.5621,33.2545 C52.9081,27.8915 51.3011,25.7435 48.9951,25.5985 C47.9511,25.5325 45.7971,26.2525 45.8711,28.7175 C45.9561,31.5305 49.0071,34.2415 51.9931,34.1685 C59.8291,33.9765 65.2111,24.6645 65.2111,24.6645 L65.2281,24.6645 C60.8261,52.3585 61.2521,74.5785 53.3661,76.1135 C47.6071,77.2355 44.9151,71.4525 53.9251,57.7225 C64.0281,42.3285 64.1191,40.4335 79.0821,26.4605" id="Stroke-3" stroke="#000000" stroke-width="1.5" stroke-linecap="round" stroke-linejoin="round" sketch:type="MSShapeGroup"></path>
                <path d="M85.9035,23.8008 C77.7865,23.9988 74.4585,32.1738 74.6045,37.0178 C74.7505,41.8628 77.8475,45.3798 82.4505,45.2668 C92.0115,45.0328 95.4755,37.8658 95.8375,32.2548 C96.1835,26.8918 94.5765,24.7438 92.2705,24.5988 C91.2265,24.5328 89.0725,25.2528 89.1465,27.7178 C89.2315,30.5308 92.2825,33.2418 95.2685,33.1688 C99.6325,33.0618 105.2895,29.8478 106.9085,27.1098" id="Stroke-5" stroke="#000000" stroke-width="1.5" stroke-linecap="round" stroke-linejoin="round" sketch:type="MSShapeGroup"></path>
                <path d="M116.3621,0.9058 C116.6551,0.3528 97.6741,41.4018 108.9961,43.8358 C113.5761,44.8198 117.8401,38.1098 119.1371,34.3778" id="Stroke-7" stroke="#000000" stroke-width="1.5" stroke-linecap="round" stroke-linejoin="round" sketch:type="MSShapeGroup"></path>
                <path d="M180.4995,0.9589 C180.8005,0.4019 161.8085,40.7919 173.1335,43.2549 C178.0485,44.3229 183.6685,36.0109 184.9275,33.2269" id="Stroke-9" stroke="#000000" stroke-width="1.5" stroke-linecap="round" stroke-linejoin="round" sketch:type="MSShapeGroup"></path>
                <path d="M138.8221,26.7487 C138.8221,26.7487 136.2441,21.2027 128.4201,23.9237 C120.6561,26.6227 116.4371,36.4947 119.9061,41.5407 C123.5481,46.8377 131.7801,42.4707 135.3911,38.6307" id="Stroke-11" stroke="#000000" stroke-width="1.5" stroke-linecap="round" stroke-linejoin="round" sketch:type="MSShapeGroup"></path>
                <path d="M140.0687,24.9067 C140.1827,24.6957 132.0267,43.0797 137.4907,43.7647 C143.7237,44.5457 152.3267,28.4867 154.3757,25.2057 C156.9457,21.0897 153.0517,19.1107 151.9997,21.9297 C151.0197,24.5597 164.1837,33.2177 162.2387,39.0797 C159.8117,45.5117 152.9317,44.5937 152.8477,40.1847 C152.7847,36.8937 155.5967,35.0167 160.9207,34.8077 C169.4017,34.4737 170.0907,30.4527 170.0907,30.4527" id="Stroke-13" stroke="#000000" stroke-width="1.5" stroke-linecap="round" stroke-linejoin="round" sketch:type="MSShapeGroup"></path>
                <path d="M188.2535,24.5863 C188.2535,24.5863 180.1535,39.8753 187.2085,42.7863 C192.4745,44.9593 198.0835,36.9183 199.1785,33.2913" id="Stroke-15" stroke="#000000" stroke-width="1.5" stroke-linecap="round" stroke-linejoin="round" sketch:type="MSShapeGroup"></path>
                <path d="M213.7181,25.489 C213.7181,25.489 212.4531,23.859 209.3561,23.693 C205.7061,23.498 201.6401,25.501 199.8791,30.757 C197.6001,37.555 200.7511,41.603 203.8931,42.729 C208.0521,44.22 213.0851,41.148 216.4161,37.871" id="Stroke-17" stroke="#000000" stroke-width="1.5" stroke-linecap="round" stroke-linejoin="round" sketch:type="MSShapeGroup"></path>
                <path d="M166.1478,16.0671 C166.1478,16.0671 172.7938,19.9441 180.0018,18.3431 C185.6098,17.0981 188.7528,12.9661 191.2128,13.7291" id="Stroke-19" stroke="#000000" stroke-width="1.5" stroke-linecap="round" stroke-linejoin="round" sketch:type="MSShapeGroup"></path>
                <path d="M102.1942,16.2794 C102.1942,16.2794 111.5362,18.8824 117.3512,18.1344 C123.1672,17.3874 125.1912,15.8694 125.1912,15.8694" id="Stroke-21" stroke="#000000" stroke-width="1.5" stroke-linecap="round" stroke-linejoin="round" sketch:type="MSShapeGroup"></path>
                <path d="M67.8681,15.3576 C67.8681,16.2626 67.1051,16.9956 66.1651,16.9956 C65.2241,16.9956 64.4611,16.2626 64.4611,15.3576 C64.4611,14.4526 65.2241,13.7196 66.1651,13.7196 C67.1051,13.7196 67.8681,14.4526 67.8681,15.3576" id="Fill-23" fill="#000000" sketch:type="MSShapeGroup"></path>
                <path d="M24.6785,15.3576 C24.6785,16.2626 23.9155,16.9956 22.9755,16.9956 C22.0345,16.9956 21.2715,16.2626 21.2715,15.3576 C21.2715,14.4526 22.0345,13.7196 22.9755,13.7196 C23.9155,13.7196 24.6785,14.4526 24.6785,15.3576" id="Fill-25" fill="#000000" sketch:type="MSShapeGroup"></path>
                <path d="M192.4745,14.6703 C192.4745,15.5753 191.7115,16.3083 190.7715,16.3083 C189.8305,16.3083 189.0675,15.5753 189.0675,14.6703 C189.0675,13.7653 189.8305,13.0323 190.7715,13.0323 C191.7115,13.0323 192.4745,13.7653 192.4745,14.6703" id="Fill-27" fill="#000000" sketch:type="MSShapeGroup"></path>
            </g>
        </g>
    </g>
</svg>
